<svg width="16" height="16" viewBox="0 0 16 16" fill="none" xmlns="http://www.w3.org/2000/svg">
<g id="fluent:document-pdf-16-filled">
<path id="Vector" d="M4.5 9.00301C4.36739 9.00301 4.24022 9.05569 4.14645 9.14946C4.05268 9.24323 4 9.37041 4 9.50301V11.503C4 11.6356 4.05268 11.7628 4.14645 11.8566C4.24022 11.9503 4.36739 12.003 4.5 12.003C4.63261 12.003 4.75979 11.9503 4.85355 11.8566C4.94732 11.7628 5 11.6356 5 11.503V11.337H5.333C5.64251 11.337 5.93934 11.2141 6.15819 10.9952C6.37705 10.7764 6.5 10.4795 6.5 10.17C6.5 9.86051 6.37705 9.56368 6.15819 9.34482C5.93934 9.12597 5.64251 9.00301 5.333 9.00301H4.5ZM5.333 10.337H5V10.003H5.333C5.37729 10.003 5.41977 10.0206 5.45109 10.0519C5.48241 10.0832 5.5 10.1257 5.5 10.17C5.5 10.2143 5.48241 10.2568 5.45109 10.2881C5.41977 10.3194 5.37729 10.337 5.333 10.337ZM10.001 9.50201C10.0013 9.36958 10.0541 9.24266 10.1478 9.14911C10.2415 9.05555 10.3686 9.00301 10.501 9.00301H11.499C11.6316 9.00301 11.7588 9.05569 11.8526 9.14946C11.9463 9.24323 11.999 9.37041 11.999 9.50301C11.999 9.63562 11.9463 9.7628 11.8526 9.85657C11.7588 9.95034 11.6316 10.003 11.499 10.003H10.999V10.338H11.499C11.6316 10.338 11.7588 10.3907 11.8526 10.4845C11.9463 10.5782 11.999 10.7054 11.999 10.838C11.999 10.9706 11.9463 11.0978 11.8526 11.1916C11.7588 11.2853 11.6316 11.338 11.499 11.338H11V11.502C11.0001 11.5677 10.9873 11.6327 10.9623 11.6934C10.9373 11.7541 10.9006 11.8093 10.8543 11.8559C10.7607 11.9498 10.6336 12.0027 10.501 12.003C10.3684 12.0033 10.2411 11.9509 10.1472 11.8573C10.0532 11.7637 10.0003 11.6366 10 11.504V9.50201H10.001ZM7.498 9.00301C7.36539 9.00301 7.23822 9.05569 7.14445 9.14946C7.05068 9.24323 6.998 9.37041 6.998 9.50301V11.503C6.998 11.6356 7.05068 11.7628 7.14445 11.8566C7.23822 11.9503 7.36539 12.003 7.498 12.003H8C8.39783 12.003 8.77936 11.845 9.06066 11.5637C9.34197 11.2824 9.5 10.9008 9.5 10.503C9.5 10.1052 9.34197 9.72366 9.06066 9.44235C8.77936 9.16105 8.39783 9.00301 8 9.00301H7.498ZM7.998 11.003V10.003H8C8.13261 10.003 8.25979 10.0557 8.35355 10.1495C8.44732 10.2432 8.5 10.3704 8.5 10.503C8.5 10.6356 8.44732 10.7628 8.35355 10.8566C8.25979 10.9503 8.13261 11.003 8 11.003H7.998ZM9 2.00201H4.5C4.10218 2.00201 3.72065 2.16005 3.43934 2.44135C3.15804 2.72266 3 3.10419 3 3.50201V7.08401C2.70726 7.18751 2.45385 7.37931 2.27474 7.63293C2.09563 7.88656 1.99963 8.18952 2 8.50001V12.503C2 12.9008 2.15804 13.2824 2.43934 13.5637C2.72065 13.845 3.10218 14.003 3.5 14.003H12.5C12.8978 14.003 13.2794 13.845 13.5607 13.5637C13.842 13.2824 14 12.9008 14 12.503V8.49901C14.0002 8.18869 13.9041 7.88595 13.725 7.63252C13.5459 7.3791 13.2926 7.18746 13 7.08401V6.00001H10.5C10.1022 6.00001 9.72064 5.84198 9.43934 5.56067C9.15804 5.27937 9 4.89784 9 4.50001V2.00201ZM3.5 7.99901H12.5C12.6326 7.99901 12.7598 8.05169 12.8536 8.14546C12.9473 8.23923 13 8.36641 13 8.49901V12.502C13 12.6346 12.9473 12.7618 12.8536 12.8556C12.7598 12.9493 12.6326 13.002 12.5 13.002H3.5C3.36739 13.002 3.24022 12.9493 3.14645 12.8556C3.05268 12.7618 3 12.6346 3 12.502V8.49901C3 8.36641 3.05268 8.23923 3.14645 8.14546C3.24022 8.05169 3.36739 7.99901 3.5 7.99901ZM12.706 4.99901H10.5C10.3674 4.99901 10.2402 4.94634 10.1464 4.85257C10.0527 4.7588 10 4.63162 10 4.49901V2.29801L12.706 4.99901Z" fill="#D22121"/>
</g>
</svg>
