<svg width="16" height="16" viewBox="0 0 16 16" fill="none" xmlns="http://www.w3.org/2000/svg">
<g id="mingcute:doc-line" clip-path="url(#clip0_15701_26255)">
<g id="Group">
<path id="Vector" d="M9.05717 1.33331C9.41076 1.33339 9.74985 1.47391 9.99984 1.72398L12.9425 4.66665C13.1926 4.91664 13.3331 5.25572 13.3332 5.60931V13.3333C13.3332 13.6869 13.1927 14.0261 12.9426 14.2761C12.6926 14.5262 12.3535 14.6666 11.9998 14.6666H3.99984C3.64622 14.6666 3.30708 14.5262 3.05703 14.2761C2.80698 14.0261 2.6665 13.6869 2.6665 13.3333V2.66665C2.6665 2.31302 2.80698 1.97389 3.05703 1.72384C3.30708 1.47379 3.64622 1.33331 3.99984 1.33331H9.05717ZM7.99984 2.66665H3.99984V13.3333H11.9998V6.66665H8.99984C8.75125 6.66663 8.51158 6.57403 8.32756 6.4069C8.14354 6.23977 8.02837 6.01009 8.0045 5.76265L7.99984 5.66665V2.66665ZM9.37584 8.43265C9.4359 8.27395 9.55422 8.14413 9.70669 8.06964C9.85915 7.99515 10.0343 7.9816 10.1964 8.03176C10.3585 8.08191 10.4954 8.19199 10.5791 8.33956C10.6629 8.48713 10.6872 8.66109 10.6472 8.82598L10.6238 8.90065L9.6865 11.4006C9.45917 12.0073 8.62784 12.034 8.34784 11.4806L8.31317 11.4006L7.99984 10.5653L7.6865 11.4006C7.45917 12.0073 6.62784 12.034 6.34784 11.4806L6.31317 11.4006L5.37584 8.90065C5.31664 8.74153 5.32037 8.56583 5.38627 8.40937C5.45217 8.25292 5.57528 8.1275 5.73049 8.0587C5.88569 7.9899 6.06129 7.9829 6.22148 8.03914C6.38166 8.09537 6.51436 8.2106 6.5925 8.36131L6.62384 8.43265L6.99984 9.43465L7.31317 8.59931C7.5405 7.99265 8.37184 7.96598 8.65184 8.51931L8.6865 8.59931L8.99984 9.43465L9.37584 8.43265ZM9.33317 2.94265V5.33331H11.7238L9.33317 2.94265Z" fill="#007BFF"/>
</g>
</g>
<defs>
<clipPath id="clip0_15701_26255">
<rect width="16" height="16" fill="white"/>
</clipPath>
</defs>
</svg>
