<svg width="11" height="12" viewBox="0 0 11 12" fill="none" xmlns="http://www.w3.org/2000/svg">
<path id="Vector" d="M3.74579 11.5C3.74579 11.6326 3.79841 11.7598 3.89207 11.8536C3.98574 11.9473 4.11277 12 4.24523 12H5.99327C6.12573 12 6.25276 11.9473 6.34642 11.8536C6.44009 11.7598 6.4927 11.6326 6.4927 11.5V8C6.4927 7.86739 6.44009 7.74021 6.34642 7.64645C6.25276 7.55268 6.12573 7.5 5.99327 7.5C5.86081 7.5 5.73377 7.55268 5.64011 7.64645C5.54645 7.74021 5.49383 7.86739 5.49383 8V11H4.24523C4.11277 11 3.98574 11.0527 3.89207 11.1464C3.79841 11.2402 3.74579 11.3674 3.74579 11.5ZM7.70072 7.59313C7.75409 7.55496 7.81445 7.52769 7.87835 7.51288C7.94225 7.49806 8.00843 7.49599 8.07313 7.50679C8.13783 7.51758 8.19977 7.54103 8.25541 7.57579C8.31106 7.61055 8.35932 7.65594 8.39744 7.70938L9.23962 8.89L10.0818 7.70938C10.1186 7.65275 10.1664 7.60416 10.2224 7.56655C10.2785 7.52894 10.3415 7.50308 10.4078 7.49054C10.4741 7.478 10.5423 7.47904 10.6081 7.49359C10.674 7.50814 10.7363 7.5359 10.7911 7.57519C10.846 7.61449 10.8924 7.66451 10.9274 7.72223C10.9624 7.77995 10.9854 7.84418 10.995 7.91104C11.0045 7.9779 11.0004 8.046 10.983 8.11124C10.9655 8.17648 10.935 8.2375 10.8934 8.29062L9.8533 9.75L10.8946 11.2094C10.9647 11.3173 10.9905 11.4482 10.9666 11.5747C10.9427 11.7012 10.871 11.8136 10.7665 11.8885C10.6619 11.9634 10.5324 11.995 10.4051 11.9768C10.2778 11.9586 10.1625 11.8919 10.083 11.7906L9.23962 10.61L8.39744 11.7906C8.31802 11.8919 8.20265 11.9586 8.07535 11.9768C7.94804 11.995 7.81862 11.9634 7.71403 11.8885C7.60944 11.8136 7.53774 11.7012 7.51386 11.5747C7.48998 11.4482 7.51577 11.3173 7.58585 11.2094L8.62593 9.75L7.5846 8.29062C7.54648 8.23719 7.51924 8.17677 7.50444 8.1128C7.48965 8.04883 7.48758 7.98257 7.49836 7.9178C7.50915 7.85303 7.53257 7.79102 7.56729 7.73531C7.60201 7.67961 7.64735 7.63129 7.70072 7.59313ZM1.52391 9.20687C1.77363 9.13437 2.03209 9.06 2.1763 8.96688C2.25434 8.91562 2.25309 8.90438 2.24623 8.84813C2.24529 8.80268 2.23346 8.75811 2.21173 8.7182C2.19 8.67828 2.15901 8.64417 2.12137 8.61875C1.83419 8.42375 1.16369 8.51125 0.884007 8.58375C0.755853 8.61748 0.619562 8.59887 0.505117 8.532C0.390673 8.46513 0.307449 8.35549 0.273755 8.22719C0.240061 8.09889 0.258656 7.96244 0.325449 7.84787C0.392242 7.7333 0.501762 7.64998 0.629917 7.61625C0.761644 7.58187 1.94094 7.29 2.67949 7.78875C2.83522 7.8941 2.96597 8.03237 3.06251 8.19382C3.15905 8.35526 3.21904 8.53595 3.23824 8.72313C3.3631 9.71563 2.38607 9.99875 1.80235 10.1675C1.04945 10.3856 0.98327 10.475 1.0045 10.6419C1.02385 10.7925 1.08316 10.85 1.13872 10.8875C1.4259 11.0787 2.08516 10.9844 2.3586 10.9094C2.48651 10.8738 2.62328 10.8906 2.73884 10.956C2.79606 10.9884 2.84634 11.0317 2.88683 11.0836C2.92731 11.1354 2.9572 11.1947 2.97478 11.2581C2.99237 11.3215 2.99731 11.3878 2.98932 11.4531C2.98133 11.5184 2.96057 11.5815 2.92822 11.6388C2.86289 11.7545 2.75433 11.8394 2.62642 11.875C2.31687 11.9566 1.99823 11.9986 1.67811 12C1.31477 12 0.910228 11.9375 0.586216 11.7212C0.426378 11.6148 0.292083 11.4743 0.192988 11.3097C0.0938931 11.1451 0.0324621 10.9606 0.0131111 10.7694C-0.124859 9.6875 0.906482 9.38562 1.52391 9.20687ZM10.9877 5.5V1C10.9877 0.734784 10.8824 0.48043 10.6951 0.292893C10.5078 0.105357 10.2537 1.54599e-07 9.98878 1.54599e-07H3.99551C3.9299 -5.14929e-05 3.86493 0.0128379 3.8043 0.037932C3.74367 0.063026 3.68857 0.099833 3.64216 0.14625L0.146086 3.64625C0.099721 3.69272 0.0629549 3.74788 0.0378895 3.80858C0.0128231 3.86927 -5.14984e-05 3.93432 0 4V5.5C0 5.63261 0.052619 5.75979 0.146282 5.85355C0.239945 5.94732 0.36698 6 0.499439 6C0.631898 6 0.758933 5.94732 0.852596 5.85355C0.946259 5.75979 0.998878 5.63261 0.998878 5.5V4.5H3.99551C4.12797 4.5 4.255 4.44732 4.34867 4.35355C4.44233 4.25979 4.49495 4.13261 4.49495 4V1H9.98878V5.5C9.98878 5.63261 10.0414 5.75979 10.1351 5.85355C10.2287 5.94732 10.3558 6 10.4882 6C10.6207 6 10.7477 5.94732 10.8414 5.85355C10.935 5.75979 10.9877 5.63261 10.9877 5.5ZM3.49607 3.5H1.70558L3.49607 1.70688V3.5Z" fill="#229F54"/>
</svg>
